<?xml version="1.0" encoding="utf-8"?>
<!-- Generator: Adobe Illustrator 22.0.0, SVG Export Plug-In . SVG Version: 6.00 Build 0)  -->
<svg version="1.1" id="Layer_1" xmlns="http://www.w3.org/2000/svg" xmlns:xlink="http://www.w3.org/1999/xlink" x="0px" y="0px"
	 viewBox="0 0 63 63" style="enable-background:new 0 0 63 63;" xml:space="preserve">
<style type="text/css">
	.st0{opacity:0.85;enable-background:new    ;}
</style>
<title>Asset 11</title>
<path class="st0" d="M31.5,0C14.1,0,0,14.1,0,31.5S14.1,63,31.5,63S63,48.9,63,31.5C63,14.1,48.9,0,31.5,0z M31.5,60
	C15.8,60,3,47.2,3,31.5S15.8,3,31.5,3S60,15.8,60,31.5C60,47.2,47.2,60,31.5,60z"/>
<path d="M26.5,48.9c-5.1,0-9.2-4.1-9.3-9.2c0-3.4,1.8-6.5,4.8-8.1v-3.8c-6.6,2.5-9.9,9.8-7.4,16.4S24.4,54,31,51.5
	c3.9-1.5,6.8-4.7,7.8-8.8h-3.7C33.8,46.4,30.4,48.9,26.5,48.9z"/>
<circle cx="31.5" cy="12.6" r="4"/>
<path d="M43.3,36.3L43.3,36.3L43,35.8c-0.3-0.5-0.7-0.8-1.2-0.9l-8.3-1.4V25l2.9,2.2c0.3,0.2,0.7,0.4,1.1,0.4h6.3
	c1,0,1.8-0.8,1.8-1.8s-0.8-1.8-1.8-1.8h-5.7l-6.4-4.9c-0.1-0.1-0.3-0.2-0.5-0.2c-2-0.9-4.4-0.1-5.3,1.9c-0.2,0.5-0.4,1.1-0.4,1.7v13
	c0,2.2,1.8,4,4,4c2.2,0,11.3-0.6,11.3-0.6l5.2,9.5c0.3,0.6,0.9,0.9,1.5,0.9c0.3,0,0.6-0.1,0.8-0.2c0.5-0.3,0.8-0.8,0.9-1.4
	c0-0.3,0-0.7-0.2-1L43.3,36.3z"/>
<path d="M50.8,23.5c-0.5-0.2-1.1,0-1.3,0.5l-3.1,6.1H40c-0.6,0-1,0.4-1,1s0.4,1,1,1h7c0.4,0,0.7-0.2,0.9-0.5l3.3-6.7
	C51.5,24.4,51.3,23.8,50.8,23.5z"/>
</svg>
